<svg xmlns="http://www.w3.org/2000/svg" viewBox="0 0 960 360" role="img" aria-label="Kerala Play">
<defs><linearGradient id="bg" x2="1" y2="1"><stop stop-color="#063f3f"/><stop offset="1" stop-color="#061b20"/></linearGradient><linearGradient id="gold"><stop stop-color="#fff4c7"/><stop offset=".55" stop-color="#e6bd5d"/><stop offset="1" stop-color="#9d681c"/></linearGradient><linearGradient id="leaf" x2="1" y2="1"><stop stop-color="#b4ea42"/><stop offset="1" stop-color="#08743e"/></linearGradient></defs>
<rect x="6" y="6" width="948" height="348" rx="68" fill="url(#bg)" stroke="#d5b259" stroke-width="7"/>
<path d="M95 52h62v90L239 52h78l-96 105 105 139h-79l-70-94-20 22v72H95z" fill="url(#gold)"/>
<path d="M132 222c57-67 108-77 160-62-47 8-84 31-115 75 42-18 78-17 111-5-59 4-100 27-130 69-17-20-26-45-26-77z" fill="url(#leaf)" stroke="#d7b04d" stroke-width="4"/>
<text x="350" y="168" fill="#fff5d6" font-family="Arial,sans-serif" font-size="92" font-weight="900">Kerala</text>
<text x="356" y="235" fill="#e7bd59" font-family="Arial,sans-serif" font-size="42" font-weight="800" letter-spacing="20">PLAY</text>
<text x="357" y="282" fill="#a7c9be" font-family="Arial,sans-serif" font-size="19" letter-spacing="8">OPEN WORLD · REAL STORIES</text></svg>